<svg xmlns="http://www.w3.org/2000/svg" width="15" height="15">
    <path fill-rule="evenodd" fill="#FFF" d="M14.424 4.591c-.177-.418-.144-.822-.652-1.201-.256-.22-.545-.725-.866-1.045-.32-.085-.673-.607-1.048-.861-.379-.256-.128.416-1.206-.653A7.206 7.206 0 0 0 7.894.277c-.481 0-.962.047-1.427.144-.357.092-.904.233-1.334.41-.42 1.069-.826.397-1.205.653-.373.254-.726.776-1.049.861-.32.32-.611.825-.719 1.045-.4.379-.621.783-.799 1.201-.181.579.049.875-.413 1.328a7.056 7.056 0 0 0 0 2.844c.462.453.232.9.413 2.147.178-.403.399.003.799.38.108.375.399.86.719 1.045a7.162 7.162 0 0 0 2.254 1.514c.43.441.977.318 1.334.412a7.225 7.225 0 0 0 2.853 0c.457-.094.905.029 1.332-.412 1.078-.178.827-.397 1.206-.654a6.9 6.9 0 0 0 1.048-.86c.321-.185.61-.67.866-1.045.508-.377.475-.783.652-.38.182-1.247.323-1.694.414-2.147a6.986 6.986 0 0 0 0-2.844c-.091-.453-.232-.749-.414-1.328zM7.893 1.308a6.03 6.03 0 0 1 3.999 1.506c-.017.023-.752 1.33-3.162 2.183a30.793 30.793 0 0 0-2.263-3.519 6.15 6.15 0 0 1 1.426-.17zm-1.449.176-.002.002s-.008.002-.018.002l.02-.004zm-1.135.402a35.281 35.281 0 0 1 2.248 3.475c-2.905.769-5.429.74-5.589 1.609.394-2.742 1.655-4.291 3.341-5.084zm-1.921 9.482.002.002-.002-.002zm-.001 0a5.992 5.992 0 0 1-1.549-4.029c0-.063.004-.127.006-.189.108.002 3.098.07 6.746-.86-.357.338-.191.682-.038 1.026l-.239.07c-2.843 1.052-4.924 3.979-4.926 3.982zm.785 1.602s-.054-.43.198-.979c.44.269-.239.529-.194.879l-.004.1zm3.722.402c-1.405 0-2.69-.486-3.718-.502.045-.879 1.227-3.322 4.747-4.542l.04-.014c.852 2.207 1.205 4.052 1.293 4.58a6.029 6.029 0 0 1-2.362.478zm3.382-1.029c-.061-.363-.384-2.133-.286-4.003 1.54-.618 2.757-.083 2.881-.042a6.03 6.03 0 0 1-2.595 4.045zM9.729 7.83c-.042-.85-.085-.954-.131-1.059-.127-.295-.26-.588-.402-.875 2.392-.971 3.362-2.372 3.373-2.387a5.992 5.992 0 0 1 1.377 3.77c-.088-.018-2.137-.456-4.217.551z"/>
</svg>
