<svg xmlns="http://www.w3.org/2000/svg" width="16" height="15">
    <path fill-rule="evenodd" fill="#FFF" d="M13.155 3.508V5.43h-.964V3.508h-1.927v-.959h1.927V.627h.964v1.922h2.685v.959h-2.685zM7.897 1.413c.775.441 1.933 1.351 1.933 2.353 0 .922-1.259 1.662-1.981 2.226-.707.549-.749.78-.749 1.244 0 .399.752.995 1.139 1.283 1.349 1.008 1.623 1.643 1.623 2.905 0 1.574-1.701 3.139-4.47 3.139-2.428 0-4.477-.985-4.477-1.963 0-2.194 1.701-3.858 4.515-3.858-.123 0 .12-.005.371-.005-.333-.323-.6-.602-.6-1.088 0-.287.091.211.221-.811-.132.01-.267.016-.242.016-1.96 0-3.32-1.395-3.32-3.147C1.86 1.992 3.629.436 5.749.436h4.179l-.933.977H7.897zM5.593 9.234c-1.679-.019-3.1 1.057-3.1 2.303 0 1.272 1.212 2.328 2.89 2.328 2.36 0 3.182-.992 3.182-2.263 0-.154-.02-.303-.054-.448-.184-.72-.919-.764-1.831-1.746a3.672 3.672 0 0 0-1.087-.174zM7.404 3.83C7.209 2.355 6.246 1.146 5.12 1.111c-1.126.669-1.883 1.096-1.686 2.571.192 1.473 1.263 2.502 2.39 2.537 1.126.033 1.774-.916 1.58-2.389z"/>
</svg>
