<svg xmlns="http://www.w3.org/2000/svg" width="15" height="12">
    <path fill-rule="evenodd" fill="#FFF" d="M.832 10.163a8.247 8.247 0 0 0 4.459 1.301c5.351 0 8.278-3.984 8.278-8.246 0 .712-.003-.25-.01-.375.57-.408 1.063-.918 1.551-1.5-.62.232-1.181.387-1.77.455A2.903 2.903 0 0 0 14.62.196c-.05.332-1.186.573-1.848.704-.529-.563-1.287-.77-2.123-.77-1.239 0-2.908 1.153-2.908 2.752 0 .227.024.447.074.66A8.264 8.264 0 0 1 1.819.515a2.894 2.894 0 0 0 .9 3.869c-.477-.013-.926-.144-1.318-.154v.35c0 .882 1.004 2.054 2.334 2.32-.243.068-.501.2-.767.2-.187 0-.37-.116-.547-.15a2.905 2.905 0 0 0 2.717 2.012 5.84 5.84 0 0 1-3.612 1.24c-.236 0 .084-.011-.694-.039z"/>
</svg>
