<?xml version="1.0" encoding="UTF-8"?>
<svg xmlns="http://www.w3.org/2000/svg" xmlns:xlink="http://www.w3.org/1999/xlink" width="93px" height="140px" viewBox="0 0 93 139" version="1.1">
<g id="surface1">
<path style="fill-rule:nonzero;fill:rgb(100%,100%,100%);fill-opacity:1;stroke-width:1;stroke-linecap:butt;stroke-linejoin:miter;stroke:rgb(0%,0%,0%);stroke-opacity:1;stroke-miterlimit:4;" d="M 30.438508 512.862967 L 329.561492 512.862967 C 346.08871 512.862967 359.501008 526.262809 359.501008 542.803952 L 359.501008 1021.920408 C 359.501008 1038.461551 346.08871 1051.861393 329.561492 1051.861393 L 30.438508 1051.861393 C 13.91129 1051.861393 0.498992 1038.461551 0.498992 1021.920408 L 0.498992 542.803952 C 0.498992 526.262809 13.91129 512.862967 30.438508 512.862967 Z M 30.438508 512.862967 " transform="matrix(0.258333,0,0,0.257407,0,-131.88582)"/>
<path style=" stroke:none;fill-rule:nonzero;fill:rgb(66.666667%,0%,0%);fill-opacity:1;" d="M 8.71875 0.128906 L 0.128906 17.246094 L 0.128906 17.761719 L 8.976562 0.128906 Z M 13.886719 0.128906 L 0.128906 27.542969 L 0.128906 28.058594 L 14.144531 0.128906 Z M 16.46875 0.128906 L 0.128906 32.691406 L 0.128906 33.71875 L 16.984375 0.128906 Z M 19.050781 0.128906 L 0.128906 37.839844 L 0.128906 39.382812 L 19.828125 0.128906 Z M 21.636719 0.128906 L 0.128906 42.988281 L 0.128906 45.046875 L 22.667969 0.128906 Z M 24.21875 0.128906 L 0.128906 48.136719 L 0.128906 50.710938 L 25.511719 0.128906 Z M 31.96875 0.128906 L 0.128906 63.578125 L 0.128906 64.09375 L 32.226562 0.128906 Z M 34.550781 0.128906 L 0.128906 68.726562 L 0.128906 69.757812 L 35.070312 0.128906 Z M 37.136719 0.128906 L 0.128906 73.875 L 0.128906 74.390625 L 37.394531 0.128906 Z M 44.886719 0.128906 L 0.128906 89.320312 L 0.128906 91.894531 L 46.175781 0.128906 Z M 47.46875 0.128906 L 0.128906 94.46875 L 0.128906 96.527344 L 48.503906 0.128906 Z M 50.050781 0.128906 L 0.128906 99.617188 L 0.128906 101.160156 L 50.828125 0.128906 Z M 52.636719 0.128906 L 0.128906 104.765625 L 0.128906 105.792969 L 53.152344 0.128906 Z M 55.21875 0.128906 L 0.128906 109.914062 L 0.128906 110.429688 L 55.476562 0.128906 Z M 60.386719 0.128906 L 0.128906 120.210938 L 0.128906 120.722656 L 60.644531 0.128906 Z M 62.96875 0.128906 L 0.128906 125.355469 L 0.128906 126.386719 L 63.484375 0.128906 Z M 65.550781 0.128906 L 0.128906 130.503906 L 0.128906 131.164062 C 0.128906 131.4375 0.140625 131.703125 0.167969 131.96875 L 66.328125 0.128906 Z M 68.136719 0.128906 L 0.800781 134.320312 C 0.953125 134.664062 1.136719 134.992188 1.339844 135.308594 L 69.167969 0.128906 Z M 70.71875 0.128906 L 2.285156 136.507812 C 2.5625 136.792969 2.859375 137.0625 3.179688 137.300781 L 72.011719 0.128906 Z M 78.46875 0.128906 L 8.847656 138.871094 L 9.105469 138.871094 L 78.726562 0.128906 Z M 81.050781 0.128906 L 11.429688 138.871094 L 11.949219 138.871094 L 81.570312 0.128906 Z M 83.636719 0.128906 L 14.015625 138.871094 L 14.273438 138.871094 L 83.894531 0.128906 Z M 6.605469 0.234375 C 6.40625 0.265625 6.210938 0.300781 6.023438 0.347656 L 0.128906 12.097656 L 0.128906 13.128906 Z M 3.730469 1.3125 C 3.269531 1.601562 2.839844 1.941406 2.453125 2.316406 L 0.203125 6.8125 C 0.15625 7.148438 0.128906 7.488281 0.128906 7.835938 L 0.128906 8.496094 Z M 90.367188 2.148438 L 21.765625 138.871094 L 23.054688 138.871094 L 91.207031 3.058594 C 90.949219 2.734375 90.671875 2.425781 90.367188 2.148438 Z M 92.070312 4.417969 L 24.605469 138.871094 L 25.640625 138.871094 L 92.53125 5.566406 C 92.410156 5.167969 92.253906 4.785156 92.070312 4.417969 Z M 92.871094 8.496094 L 27.449219 138.871094 L 28.222656 138.871094 L 92.871094 10.039062 Z M 92.871094 14.15625 L 30.289062 138.871094 L 30.804688 138.871094 L 92.871094 15.1875 Z M 92.871094 19.820312 L 33.132812 138.871094 L 33.390625 138.871094 L 92.871094 20.335938 Z M 92.871094 30.117188 L 38.296875 138.871094 L 38.554688 138.871094 L 92.871094 30.632812 Z M 92.871094 34.75 L 40.621094 138.871094 L 41.140625 138.871094 L 92.871094 35.78125 Z M 92.871094 39.382812 L 42.949219 138.871094 L 43.722656 138.871094 L 92.871094 40.929688 Z M 92.871094 44.015625 L 45.273438 138.871094 L 46.304688 138.871094 L 92.871094 46.074219 Z M 92.871094 48.648438 L 47.597656 138.871094 L 48.890625 138.871094 L 92.871094 51.222656 Z M 92.871094 64.09375 L 55.347656 138.871094 L 55.605469 138.871094 L 92.871094 64.609375 Z M 92.871094 68.726562 L 57.671875 138.871094 L 58.191406 138.871094 L 92.871094 69.757812 Z M 92.871094 74.390625 L 60.515625 138.871094 L 60.773438 138.871094 L 92.871094 74.90625 Z M 92.871094 89.835938 L 68.265625 138.871094 L 69.554688 138.871094 L 92.871094 92.410156 Z M 92.871094 95.5 L 71.105469 138.871094 L 72.140625 138.871094 L 92.871094 97.558594 Z M 92.871094 101.160156 L 73.949219 138.871094 L 74.722656 138.871094 L 92.871094 102.707031 Z M 92.871094 106.824219 L 76.789062 138.871094 L 77.304688 138.871094 L 92.871094 107.855469 Z M 92.871094 112.488281 L 79.632812 138.871094 L 79.890625 138.871094 L 92.871094 113 Z M 92.871094 122.785156 L 84.796875 138.871094 L 85.054688 138.871094 L 92.871094 123.296875 Z M 92.871094 127.417969 L 87.277344 138.574219 C 87.484375 138.515625 87.691406 138.449219 87.890625 138.371094 L 92.871094 128.445312 Z M 92.796875 132.1875 L 90.546875 136.683594 C 91.75 135.507812 92.566406 133.941406 92.796875 132.1875 Z M 92.796875 132.1875 "/>
<path style=" stroke:none;fill-rule:nonzero;fill:rgb(33.333333%,67.058824%,33.333333%);fill-opacity:1;" d="M 9.105469 0.128906 L 78.726562 138.871094 L 78.984375 138.871094 L 9.363281 0.128906 Z M 11.429688 0.128906 L 81.050781 138.871094 L 81.570312 138.871094 L 11.949219 0.128906 Z M 14.273438 0.128906 L 83.894531 138.871094 L 84.152344 138.871094 L 14.53125 0.128906 Z M 20.988281 0.128906 L 89.820312 137.300781 C 90.140625 137.0625 90.4375 136.792969 90.714844 136.507812 L 22.28125 0.128906 Z M 23.832031 0.128906 L 91.660156 135.308594 C 91.863281 134.992188 92.046875 134.664062 92.199219 134.320312 L 24.863281 0.128906 Z M 26.671875 0.128906 L 92.832031 131.96875 C 92.859375 131.703125 92.871094 131.4375 92.871094 131.164062 L 92.871094 130.503906 L 27.449219 0.128906 Z M 29.515625 0.128906 L 92.871094 126.386719 L 92.871094 125.355469 L 30.03125 0.128906 Z M 32.355469 0.128906 L 92.871094 120.722656 L 92.871094 120.210938 L 32.613281 0.128906 Z M 37.523438 0.128906 L 92.871094 110.429688 L 92.871094 109.914062 L 37.78125 0.128906 Z M 39.847656 0.128906 L 92.871094 105.792969 L 92.871094 104.765625 L 40.363281 0.128906 Z M 42.171875 0.128906 L 92.871094 101.160156 L 92.871094 99.617188 L 42.949219 0.128906 Z M 44.496094 0.128906 L 92.871094 96.527344 L 92.871094 94.46875 L 45.53125 0.128906 Z M 46.824219 0.128906 L 92.871094 91.894531 L 92.871094 89.320312 L 48.113281 0.128906 Z M 55.605469 0.128906 L 92.871094 74.390625 L 92.871094 73.875 L 55.863281 0.128906 Z M 57.929688 0.128906 L 92.871094 69.757812 L 92.871094 68.726562 L 58.449219 0.128906 Z M 60.773438 0.128906 L 92.871094 64.09375 L 92.871094 63.578125 L 61.03125 0.128906 Z M 67.488281 0.128906 L 92.871094 50.710938 L 92.871094 48.136719 L 68.78125 0.128906 Z M 70.332031 0.128906 L 92.871094 45.046875 L 92.871094 42.988281 L 71.363281 0.128906 Z M 73.171875 0.128906 L 92.871094 39.382812 L 92.871094 37.839844 L 73.949219 0.128906 Z M 76.015625 0.128906 L 92.871094 33.71875 L 92.871094 32.691406 L 76.53125 0.128906 Z M 78.855469 0.128906 L 92.871094 28.058594 L 92.871094 27.542969 L 79.113281 0.128906 Z M 84.023438 0.128906 L 92.871094 17.761719 L 92.871094 17.246094 L 84.28125 0.128906 Z M 86.394531 0.234375 L 92.871094 13.128906 L 92.871094 12.097656 L 86.976562 0.347656 C 86.789062 0.300781 86.59375 0.265625 86.394531 0.234375 Z M 89.269531 1.3125 L 92.871094 8.496094 L 92.871094 7.835938 C 92.871094 7.488281 92.84375 7.148438 92.796875 6.8125 L 90.546875 2.316406 C 90.160156 1.941406 89.730469 1.601562 89.269531 1.3125 Z M 2.632812 2.148438 C 2.328125 2.425781 2.050781 2.734375 1.792969 3.058594 L 69.945312 138.871094 L 71.234375 138.871094 Z M 0.929688 4.417969 C 0.746094 4.785156 0.589844 5.167969 0.46875 5.566406 L 67.359375 138.871094 L 68.394531 138.871094 Z M 0.128906 8.496094 L 0.128906 10.039062 L 64.777344 138.871094 L 65.550781 138.871094 Z M 0.128906 14.15625 L 0.128906 15.1875 L 62.195312 138.871094 L 62.710938 138.871094 Z M 0.128906 19.820312 L 0.128906 20.335938 L 59.609375 138.871094 L 59.867188 138.871094 Z M 0.128906 30.117188 L 0.128906 30.632812 L 54.445312 138.871094 L 54.703125 138.871094 Z M 0.128906 34.75 L 0.128906 35.78125 L 51.859375 138.871094 L 52.378906 138.871094 Z M 0.128906 39.382812 L 0.128906 40.929688 L 49.277344 138.871094 L 50.050781 138.871094 Z M 0.128906 44.015625 L 0.128906 46.074219 L 46.695312 138.871094 L 47.726562 138.871094 Z M 0.128906 48.648438 L 0.128906 51.222656 L 44.109375 138.871094 L 45.402344 138.871094 Z M 0.128906 64.09375 L 0.128906 64.609375 L 37.394531 138.871094 L 37.652344 138.871094 Z M 0.128906 68.726562 L 0.128906 69.757812 L 34.808594 138.871094 L 35.328125 138.871094 Z M 0.128906 74.390625 L 0.128906 74.90625 L 32.226562 138.871094 L 32.484375 138.871094 Z M 0.128906 89.835938 L 0.128906 92.410156 L 23.445312 138.871094 L 24.734375 138.871094 Z M 0.128906 95.5 L 0.128906 97.558594 L 20.859375 138.871094 L 21.894531 138.871094 Z M 0.128906 101.160156 L 0.128906 102.707031 L 18.277344 138.871094 L 19.050781 138.871094 Z M 0.128906 106.824219 L 0.128906 107.855469 L 15.695312 138.871094 L 16.210938 138.871094 Z M 0.128906 112.488281 L 0.128906 113 L 13.109375 138.871094 L 13.367188 138.871094 Z M 0.128906 122.785156 L 0.128906 123.296875 L 7.945312 138.871094 L 8.203125 138.871094 Z M 0.128906 127.417969 L 0.128906 128.445312 L 5.109375 138.371094 C 5.308594 138.449219 5.515625 138.515625 5.722656 138.574219 Z M 0.203125 132.1875 C 0.433594 133.941406 1.25 135.507812 2.453125 136.683594 Z M 0.203125 132.1875 "/>
</g>
</svg>
